# xmcd
#
# Track frame offsets: 
#        150
#        21553
#        42895
#        61027
#        79606
#        102547
#        136945
#        158875
#        172371
#        189078
#
# Disc length: 2769 seconds
#
# Revision: 1
# Processed by: cddbd v1.5.2PL0 Copyright (c) Steve Scherf et al.
# Submitted via: ExactAudioCopyFreeDBPlugin 1.0
#
DISCID=800acf0a
DTITLE=Geoff Muldaur - The Secret Handshake
DYEAR=1998
DGENRE=Jazz
TTITLE0=The Wild Ox Moan
TTITLE1=This World Is Not My Home
TTITLE2=Alberta
TTITLE3=Got To Find Blind Lemon - Part I
TTITLE4=I Believe I'll Go Back Home
TTITLE5=Chevrolet - Big Alice
TTITLE6=I Can't See Your Face
TTITLE7=Mistreated Mama
TTITLE8=Someday Baby
TTITLE9=Just A Little While To Stay Here
EXTD=
EXTT0=
EXTT1=
EXTT2=
EXTT3=
EXTT4=
EXTT5=
EXTT6=
EXTT7=
EXTT8=
EXTT9=
PLAYORDER=
